<svg xmlns="http://www.w3.org/2000/svg" width="11" height="21" viewBox="0 0 11 21">
    <path fill="#9b9b9b" fill-rule="evenodd" d="M10.586.004L7.947 0c-2.964 0-4.88 2.028-4.88 5.168v2.383H.416A.422.422 0 0 0 0 7.979v3.453c0 .236.186.428.415.428h2.653v8.712c0 .236.185.428.415.428h3.46c.23 0 .416-.192.416-.428V11.86h3.101c.23 0 .415-.192.415-.428l.001-3.453a.436.436 0 0 0-.121-.302.408.408 0 0 0-.294-.126H7.36v-2.02c0-.97.224-1.464 1.449-1.464h1.777A.422.422 0 0 0 11 3.638V.433a.422.422 0 0 0-.414-.429z"/>
</svg>
