<svg xmlns="http://www.w3.org/2000/svg" width="88" height="50" viewBox="0 0 88 50">
    <g fill="none" fill-rule="evenodd">
        <path fill="#FFF" d="M-170-80h1920v8870H-170z"/>
        <g>
            <circle cx="25" cy="25" r="25" fill="#4A4A4A"/>
            <path fill="#4A4A4A" d="M65.75 27.116c0 .541-.107.996-.322 1.365-.215.369-.5.665-.854.889a3.721 3.721 0 0 1-1.211.483A6.565 6.565 0 0 1 61.97 30h-3.948v-9.912h3.948c.383 0 .775.04 1.176.119.401.08.765.215 1.092.406.327.191.593.45.798.777.205.327.308.742.308 1.246 0 .55-.15 1.006-.448 1.365a2.5 2.5 0 0 1-1.176.777v.028c.28.047.544.133.791.259s.462.287.644.483.327.425.434.686c.107.261.161.555.161.882zm-2.716-4.158c0-.336-.128-.581-.385-.735-.257-.154-.637-.231-1.141-.231h-1.176v2.044h1.288c.448 0 .796-.091 1.043-.273.247-.182.371-.45.371-.805zm.322 3.934c0-.41-.154-.695-.462-.854-.308-.159-.719-.238-1.232-.238h-1.33v2.268h1.344c.187 0 .38-.016.581-.049.2-.033.383-.091.546-.175.163-.084.296-.203.399-.357.103-.154.154-.352.154-.595zM67.234 30V19.416h2.324V30h-2.324zm11.536-3.514c0 .57-.103 1.085-.308 1.547a3.469 3.469 0 0 1-.84 1.176 3.845 3.845 0 0 1-1.232.749 4.182 4.182 0 0 1-1.498.266c-.523 0-1.02-.089-1.491-.266a3.747 3.747 0 0 1-1.232-.749 3.516 3.516 0 0 1-.833-1.176 3.768 3.768 0 0 1-.308-1.547c0-.57.103-1.083.308-1.54a3.458 3.458 0 0 1 2.065-1.89 4.407 4.407 0 0 1 1.491-.252 4.39 4.39 0 0 1 1.498.252c.467.168.877.41 1.232.728.355.317.635.705.84 1.162.205.457.308.97.308 1.54zm-2.212 0a1.99 1.99 0 0 0-.112-.658 1.637 1.637 0 0 0-.84-.966 1.577 1.577 0 0 0-.714-.154c-.27 0-.509.051-.714.154a1.558 1.558 0 0 0-.511.399 1.71 1.71 0 0 0-.308.567 2.11 2.11 0 0 0 0 1.316 1.8 1.8 0 0 0 .315.581c.14.173.313.31.518.413.205.103.443.154.714.154.27 0 .509-.051.714-.154a1.55 1.55 0 0 0 .518-.413 1.8 1.8 0 0 0 .315-.581 2.11 2.11 0 0 0 .105-.658zm11.06 2.856c0 .681-.098 1.274-.294 1.778a3.34 3.34 0 0 1-.826 1.253 3.38 3.38 0 0 1-1.295.742 5.497 5.497 0 0 1-1.687.245 6.843 6.843 0 0 1-1.897-.28 5.2 5.2 0 0 1-1.687-.812l1.148-1.638c.336.299.707.52 1.113.665.406.145.805.217 1.197.217.672 0 1.169-.177 1.491-.532.322-.355.483-.826.483-1.414v-.42h-.042c-.215.28-.504.504-.868.672-.364.168-.78.252-1.246.252-.532 0-1.003-.096-1.414-.287a3.102 3.102 0 0 1-1.043-.777 3.4 3.4 0 0 1-.651-1.141 4.209 4.209 0 0 1-.224-1.379c0-.485.075-.947.224-1.386.15-.439.366-.826.651-1.162a3.177 3.177 0 0 1 1.043-.805c.41-.2.877-.301 1.4-.301.439 0 .859.089 1.26.266.401.177.723.453.966.826h.028v-.896h2.17v6.314zm-2.184-2.87c0-.233-.04-.457-.119-.672a1.709 1.709 0 0 0-.343-.567 1.622 1.622 0 0 0-.532-.385 1.674 1.674 0 0 0-.7-.14 1.536 1.536 0 0 0-1.204.518 1.66 1.66 0 0 0-.322.56 2.073 2.073 0 0 0-.112.686c0 .233.037.457.112.672.075.215.182.404.322.567.14.163.31.294.511.392.2.098.432.147.693.147a1.652 1.652 0 0 0 1.239-.532c.145-.159.257-.345.336-.56.08-.215.119-.443.119-.686z"/>
            <path fill="#FFF" d="M27.714 27.294c0 .541-.11 1.01-.329 1.407-.22.397-.506.723-.861.98a3.79 3.79 0 0 1-1.197.574 4.919 4.919 0 0 1-1.351.189 5.55 5.55 0 0 1-1.309-.154 4.128 4.128 0 0 1-1.162-.469 3.37 3.37 0 0 1-.917-.812A3.38 3.38 0 0 1 20 27.812l2.184-.574c.093.327.285.614.574.861.29.247.658.371 1.106.371.168 0 .338-.023.511-.07.173-.047.327-.119.462-.217s.247-.226.336-.385c.089-.159.133-.355.133-.588 0-.252-.058-.462-.175-.63a1.24 1.24 0 0 0-.462-.399 2.269 2.269 0 0 0-.651-.21 4.261 4.261 0 0 0-.728-.063h-.63v-1.722h.686c.224 0 .439-.016.644-.049.205-.033.39-.093.553-.182.163-.089.294-.208.392-.357.098-.15.147-.345.147-.588 0-.355-.126-.625-.378-.812a1.42 1.42 0 0 0-.868-.28c-.336 0-.628.1-.875.301a1.39 1.39 0 0 0-.483.805l-2.184-.504a3.236 3.236 0 0 1 1.407-1.883c.331-.21.693-.369 1.085-.476A4.538 4.538 0 0 1 23.99 20c.439 0 .866.056 1.281.168.415.112.786.285 1.113.518.327.233.59.525.791.875.2.35.301.763.301 1.239 0 .55-.156 1.015-.469 1.393a2.285 2.285 0 0 1-1.197.763v.042a2.55 2.55 0 0 1 1.372.833c.168.2.299.425.392.672.093.247.14.511.14.791zm9.296-.448c0 .56-.103 1.064-.308 1.512a3.303 3.303 0 0 1-.84 1.134c-.355.308-.77.544-1.246.707-.476.163-.98.245-1.512.245a4.608 4.608 0 0 1-1.519-.245 3.73 3.73 0 0 1-1.239-.707 3.339 3.339 0 0 1-1.148-2.59c0-.588.103-1.122.308-1.603.205-.48.471-.968.798-1.463l2.394-3.57h2.842l-2.436 3.388-.042.07a1.47 1.47 0 0 1 .336-.084c.13-.019.252-.028.364-.028.43 0 .842.077 1.239.231.397.154.742.373 1.036.658a3.206 3.206 0 0 1 .973 2.345zm-2.352.056c0-.448-.14-.819-.42-1.113-.28-.294-.653-.441-1.12-.441-.467 0-.845.145-1.134.434-.29.29-.434.667-.434 1.134 0 .43.14.798.42 1.106.28.308.658.462 1.134.462.467 0 .842-.145 1.127-.434.285-.29.427-.672.427-1.148zm11.13 0c0 .607-.107 1.132-.322 1.575a3.15 3.15 0 0 1-.861 1.099c-.36.29-.768.506-1.225.651a4.66 4.66 0 0 1-1.414.217c-.448 0-.875-.058-1.281-.175a4.105 4.105 0 0 1-1.106-.497 3.363 3.363 0 0 1-.854-.791 3.162 3.162 0 0 1-.525-1.057l2.142-.658c.103.345.296.63.581.854.285.224.623.336 1.015.336.401 0 .749-.121 1.043-.364.294-.243.441-.602.441-1.078 0-.29-.06-.532-.182-.728a1.408 1.408 0 0 0-.469-.469 1.944 1.944 0 0 0-.651-.245 3.847 3.847 0 0 0-.728-.07c-.355 0-.758.04-1.211.119-.453.08-.856.184-1.211.315l.238-5.67h6.076v2.016h-3.99l-.084 1.568c.15-.037.315-.063.497-.077.182-.014.348-.021.497-.021.495 0 .961.065 1.4.196.439.13.819.329 1.141.595.322.266.576.595.763.987.187.392.28.85.28 1.372zm4.41 2.044c0 .392-.138.719-.413.98a1.384 1.384 0 0 1-.987.392 1.478 1.478 0 0 1-1.008-.392 1.281 1.281 0 0 1-.42-.966c0-.187.037-.364.112-.532.075-.168.177-.315.308-.441.13-.126.282-.226.455-.301.173-.075.357-.112.553-.112.383 0 .712.13.987.392.275.261.413.588.413.98z"/>
        </g>
    </g>
</svg>
