<svg xmlns="http://www.w3.org/2000/svg" xmlns:xlink="http://www.w3.org/1999/xlink" width="153" height="60" viewBox="0 0 153 60">
    <defs>
        <path id="a" d="M.518.335h11.648v36.906H.518z"/>
    </defs>
    <g fill="none" fill-rule="evenodd">
        <path fill="#FFF" d="M-883-8601h1920V269H-883z"/>
        <path fill="#FAFAFA" d="M-883-131h1920v400H-883z"/>
        <path fill="#CC2A41" d="M104.05 0L94.01 21.922h48.378L152.428 0z"/>
        <path fill="#FFF" d="M116.86 10.96c.55.539.824 1.23.824 2.07 0 .714-.187 1.349-.56 1.903-.372.554-.9.986-1.581 1.295-.68.308-1.48.464-2.396.464a8.04 8.04 0 0 1-2.42-.376c-.794-.25-1.462-.583-2.005-1l1.087-2.062c.467.395.968.694 1.5.895a4.465 4.465 0 0 0 1.599.304c.616 0 1.092-.12 1.421-.36.33-.239.495-.582.495-1.03 0-.448-.164-.789-.495-1.023-.329-.234-.809-.351-1.437-.351h-1.885v-1.6l2.588-2.492h-4.282v-2.24h7.828v1.695L114.09 9.85l.59.112c.906.127 1.633.461 2.18.998M122.069 11.727c-.293.293-.44.67-.44 1.128 0 .447.139.814.416 1.103.277.287.681.43 1.214.43.5 0 .895-.135 1.182-.405.287-.273.431-.66.431-1.16 0-.48-.138-.856-.415-1.127-.277-.271-.66-.408-1.15-.408-.533 0-.945.148-1.238.44m3.05-4.092a4.236 4.236 0 0 0-1.237-.184c-.863 0-1.51.258-1.941.775-.432.517-.637 1.24-.614 2.166.563-.799 1.432-1.199 2.603-1.199.713 0 1.34.152 1.878.456.537.304.952.73 1.245 1.28.293.548.439 1.184.439 1.91 0 .776-.17 1.456-.511 2.037a3.421 3.421 0 0 1-1.446 1.343c-.623.314-1.345.472-2.163.472-.98 0-1.828-.225-2.541-.672-.713-.448-1.261-1.09-1.646-1.926-.383-.837-.575-1.82-.575-2.95 0-1.183.21-2.221.632-3.116.42-.896 1.014-1.585 1.78-2.071.768-.485 1.662-.726 2.685-.726.617 0 1.247.084 1.892.255.646.17 1.201.394 1.67.671l-1.086 2.015a3.385 3.385 0 0 0-1.063-.536M135.661 9.85c.656.288 1.162.687 1.518 1.199.357.511.536 1.098.536 1.758 0 .778-.187 1.46-.56 2.046-.372.586-.905 1.04-1.597 1.36-.692.318-1.496.478-2.412.478a7.524 7.524 0 0 1-2.308-.383 8.407 8.407 0 0 1-2.117-1.008l1.086-2.11c1.034.832 2.04 1.247 3.02 1.247.553 0 .985-.125 1.294-.376.308-.25.463-.593.463-1.03 0-.437-.151-.77-.456-.999-.303-.23-.758-.343-1.365-.343-1.417 0-2.439.02-3.067.063V5.358h7.524v2.35h-4.841v1.71h1.007c.863 0 1.622.144 2.275.432"/>
        <path fill="#232323" d="M14.05 45.394c.805-.919 1.209-2.123 1.209-3.613 0-1.489-.404-2.7-1.21-3.63-.806-.932-1.854-1.397-3.145-1.397-1.265 0-2.295.465-3.089 1.396-.794.931-1.19 2.142-1.19 3.631 0 1.49.396 2.694 1.19 3.613.794.918 1.824 1.378 3.09 1.378 1.29 0 2.338-.46 3.144-1.378m3.405-12.57c1.415.857 2.512 2.073 3.294 3.65.782 1.578 1.172 3.396 1.172 5.456 0 2.036-.378 3.823-1.135 5.363-.756 1.54-1.836 2.732-3.238 3.575-1.401.844-3.02 1.267-4.856 1.267-1.266 0-2.414-.243-3.443-.726a7.183 7.183 0 0 1-2.624-2.105v9.832H0V31.764h6.624v2.606c1.464-1.886 3.437-2.83 5.918-2.83 1.86 0 3.498.428 4.912 1.284M34.294 32.434c1.104-.62 2.364-.931 3.778-.931v6.07a9.87 9.87 0 0 0-1.005-.038c-1.563 0-2.828.368-3.796 1.1-.968.732-1.526 1.731-1.675 2.997v10.28h-6.624V31.763h6.624v3.352c.695-1.168 1.594-2.061 2.698-2.682M46.817 38.28c-.794.92-1.19 2.123-1.19 3.613 0 1.515.396 2.732 1.19 3.65.794.919 1.836 1.377 3.127 1.377 1.314 0 2.368-.458 3.163-1.378.794-.917 1.19-2.134 1.19-3.65 0-1.489-.402-2.692-1.209-3.612-.806-.918-1.855-1.377-3.144-1.377-1.29 0-2.333.46-3.127 1.377m8.895-5.455c1.662.856 2.952 2.06 3.87 3.612.918 1.552 1.378 3.346 1.378 5.382 0 2.06-.46 3.867-1.378 5.418-.918 1.552-2.208 2.756-3.87 3.613-1.662.856-3.585 1.285-5.768 1.285-2.185 0-4.107-.43-5.77-1.285-1.661-.857-2.945-2.06-3.851-3.613-.906-1.551-1.358-3.357-1.358-5.418 0-2.036.452-3.83 1.358-5.382.906-1.552 2.19-2.756 3.852-3.612 1.662-.856 3.584-1.285 5.77-1.285 2.182 0 4.105.429 5.767 1.285"/>
        <g transform="translate(58.581 22.155)">
            <mask id="b" fill="#fff">
                <use xlink:href="#a"/>
            </mask>
            <path fill="#232323" d="M11.18 1.323c.657.657.986 1.508.986 2.55 0 1.019-.329 1.862-.986 2.533-.658.67-1.495 1.006-2.512 1.006-1.018 0-1.855-.336-2.513-1.006-.657-.671-.985-1.514-.985-2.532 0-1.043.328-1.894.985-2.551C6.813.665 7.65.335 8.668.335c1.017 0 1.854.33 2.512.988M3.458 31.99c.645 0 1.14-.21 1.488-.633.348-.422.521-1.042.521-1.861V9.609h6.625V30.5c0 2.086-.64 3.73-1.917 4.935-1.278 1.203-3.009 1.806-5.192 1.806-1.563 0-3.051-.26-4.465-.782l1.302-4.73c.645.173 1.191.26 1.638.26" mask="url(#b)"/>
        </g>
        <path fill="#232323" d="M87.829 40.068c0-1.166-.341-2.104-1.024-2.812-.683-.707-1.581-1.061-2.697-1.061-1.042 0-1.918.348-2.624 1.043-.708.695-1.173 1.638-1.396 2.83h7.74zm3.796-5.623c1.761 1.937 2.642 4.593 2.642 7.97 0 .52-.013.918-.037 1.191H80.237c.321 1.142.88 2.018 1.674 2.626.794.608 1.762.912 2.903.912.869 0 1.706-.173 2.512-.521a7.11 7.11 0 0 0 2.215-1.528L93 48.56a10.197 10.197 0 0 1-3.777 2.662c-1.476.61-3.144.913-5.005.913-2.159 0-4.044-.422-5.656-1.266-1.615-.844-2.848-2.036-3.704-3.576-.856-1.54-1.283-3.327-1.283-5.363 0-2.06.433-3.879 1.301-5.456a8.996 8.996 0 0 1 3.686-3.65c1.586-.855 3.423-1.284 5.508-1.284 3.274 0 5.791.969 7.554 2.905zM106.326 37.014c-1.192 0-2.16.453-2.903 1.36-.744.906-1.117 2.08-1.117 3.519 0 1.465.373 2.644 1.117 3.538.744.894 1.711 1.34 2.903 1.34 1.835 0 3.15-.757 3.944-2.271l4.875 2.793c-.793 1.54-1.985 2.732-3.572 3.576-1.588.843-3.45 1.266-5.582 1.266-2.06 0-3.871-.423-5.434-1.266a8.905 8.905 0 0 1-3.629-3.576c-.856-1.54-1.283-3.327-1.283-5.363 0-2.06.433-3.878 1.302-5.456a9.02 9.02 0 0 1 3.666-3.65c1.575-.855 3.392-1.284 5.452-1.284 2.01 0 3.796.416 5.359 1.248a8.968 8.968 0 0 1 3.647 3.52L110.27 39.1c-.944-1.39-2.258-2.086-3.944-2.086M130.925 50.869c-.744.422-1.6.75-2.568.987-.967.235-1.948.353-2.94.353-1.985 0-3.59-.57-4.82-1.713-1.227-1.142-1.842-2.718-1.842-4.73v-8.64h-2.79V32.73h2.79v-5.586h6.588v5.586h5.21v4.395h-5.21v7.597c0 1.416.583 2.123 1.749 2.123.719 0 1.575-.223 2.568-.67l1.265 4.693z"/>
    </g>
</svg>
