<svg xmlns="http://www.w3.org/2000/svg" width="27" height="17" viewBox="0 0 27 17">
    <path fill="#9b9b9b" fill-rule="nonzero" d="M25.852 1.638C25.12.445 24.325.226 22.707.142 21.09.042 17.025 0 13.503 0c-3.528 0-7.595.042-9.21.14-1.615.086-2.411.304-3.15 1.498C.387 2.83 0 4.882 0 8.495V8.508c0 3.598.388 5.665 1.142 6.845.74 1.193 1.534 1.409 3.15 1.51 1.616.086 5.683.137 9.211.137 3.522 0 7.587-.051 9.206-.136 1.618-.1 2.413-.317 3.145-1.51C26.615 14.174 27 12.107 27 8.51v-.007-.005c0-3.615-.385-5.667-1.148-6.859zM10 13V4l8 4.5-8 4.5z"/>
</svg>
